<svg width="802" height="174" viewBox="0 0 802 174" fill="none" xmlns="http://www.w3.org/2000/svg">
<mask id="mask0_3965_20648" style="mask-type:alpha" maskUnits="userSpaceOnUse" x="0" y="0" width="802" height="174">
<rect width="802" height="174" rx="8" fill="#F4F6F9"/>
</mask>
<g mask="url(#mask0_3965_20648)">
<rect width="802" height="174" rx="8" fill="#F4F6F9"/>
<mask id="mask1_3965_20648" style="mask-type:alpha" maskUnits="userSpaceOnUse" x="642" y="0" width="160" height="175">
<rect x="642" y="0.0351562" width="160" height="174" rx="8" fill="#F4F6F9"/>
</mask>
<g mask="url(#mask1_3965_20648)">
<g opacity="0.2">
<path d="M678.601 92.2592C527.006 158.842 428.973 269.419 459.639 339.239C490.305 409.058 638.057 411.682 789.652 345.099C941.248 278.515 1039.28 167.939 1008.62 98.1193C977.949 28.2996 830.197 25.676 678.601 92.2592Z" stroke="#4D5469" stroke-width="0.5" stroke-miterlimit="10"/>
<path d="M679.444 98.4171C534.333 170.509 443.614 283.131 476.818 349.964C510.021 416.797 654.573 412.533 799.683 340.441C944.794 268.349 1035.51 155.727 1002.31 88.8943C969.107 22.0613 824.554 26.3248 679.444 98.4171Z" stroke="#4D5469" stroke-width="0.5" stroke-miterlimit="10"/>
<path d="M680.373 104.818C541.742 182.434 458.331 297.1 494.069 360.932C529.807 424.764 671.161 413.59 809.791 335.974C948.422 258.358 1031.83 143.692 996.095 79.8597C960.357 16.0278 819.004 27.2021 680.373 104.818Z" stroke="#4D5469" stroke-width="0.5" stroke-miterlimit="10"/>
<path d="M680.827 111.132C548.685 194.27 472.604 311.002 510.894 371.861C549.184 432.721 687.346 414.661 819.487 331.524C951.628 248.386 1027.71 131.654 989.42 70.7944C951.13 9.93501 812.968 27.9948 680.827 111.132Z" stroke="#4D5469" stroke-width="0.5" stroke-miterlimit="10"/>
<path d="M681.539 117.446C555.877 206.108 487.1 324.884 527.921 382.742C568.743 440.599 703.705 415.628 829.367 326.967C955.029 238.306 1023.81 119.529 982.985 61.6712C942.163 3.81377 807.201 28.7852 681.539 117.446Z" stroke="#4D5469" stroke-width="0.5" stroke-miterlimit="10"/>
<path d="M682.198 123.618C563.029 217.788 501.581 338.618 544.95 393.499C588.319 448.381 720.081 416.531 839.25 322.361C958.418 228.191 1019.87 107.361 976.497 52.4797C933.129 -2.40172 801.366 29.4479 682.198 123.618Z" stroke="#4D5469" stroke-width="0.5" stroke-miterlimit="10"/>
<path d="M683.038 130.102C570.37 229.786 516.245 352.654 562.147 404.534C608.048 456.414 736.594 417.66 849.262 317.976C961.93 218.291 1016.06 95.4236 970.154 43.5437C924.252 -8.33632 795.706 30.4171 683.038 130.102Z" stroke="#4D5469" stroke-width="0.5" stroke-miterlimit="10"/>
<path d="M683.76 136.335C577.57 241.543 530.757 366.469 579.2 415.364C627.643 464.258 752.998 418.607 859.187 313.399C965.377 208.19 1012.19 83.2652 963.747 34.3703C915.304 -14.5246 789.949 31.1263 683.76 136.335Z" stroke="#4D5469" stroke-width="0.5" stroke-miterlimit="10"/>
<path d="M684.508 142.576C584.809 253.295 545.325 380.274 596.318 426.19C647.31 472.107 769.469 419.574 869.167 308.854C968.866 198.135 1008.35 71.1563 957.358 25.2398C906.366 -20.6767 784.207 31.8564 684.508 142.576Z" stroke="#4D5469" stroke-width="0.5" stroke-miterlimit="10"/>
<path d="M685.138 148.871C591.926 265.108 559.76 394.137 613.293 437.066C666.826 479.995 785.787 420.567 878.998 304.33C972.21 188.094 1004.38 59.0645 950.843 16.1354C897.31 -26.7936 778.35 32.6342 685.138 148.871Z" stroke="#4D5469" stroke-width="0.5" stroke-miterlimit="10"/>
<path d="M685.868 155.297C599.146 277.054 574.292 408.128 630.355 448.059C686.418 487.99 802.168 421.657 888.89 299.9C975.612 178.143 1000.47 47.0689 944.403 7.13787C888.341 -32.7932 772.59 33.5397 685.868 155.297Z" stroke="#4D5469" stroke-width="0.5" stroke-miterlimit="10"/>
<path d="M686.504 161.507C606.26 288.788 588.713 421.919 647.313 458.863C705.912 495.807 818.468 422.575 898.712 295.294C978.957 168.013 996.503 34.8828 937.904 -2.0615C879.304 -39.0058 766.749 34.2263 686.504 161.507Z" stroke="#4D5469" stroke-width="0.5" stroke-miterlimit="10"/>
<path d="M687.245 167.874C613.49 300.675 603.272 435.862 664.422 469.824C725.572 503.786 834.934 423.66 908.689 290.86C982.444 158.059 992.662 22.8711 931.512 -11.0906C870.362 -45.0522 761 35.073 687.245 167.874Z" stroke="#4D5469" stroke-width="0.5" stroke-miterlimit="10"/>
<path d="M688.038 173.93C620.761 312.247 617.84 449.481 681.514 480.452C745.188 511.423 851.345 424.402 918.622 286.086C985.899 147.77 988.819 10.5355 925.145 -20.4354C861.471 -51.4064 755.315 35.6141 688.038 173.93Z" stroke="#4D5469" stroke-width="0.5" stroke-miterlimit="10"/>
<path d="M688.746 180.371C627.965 324.195 632.365 463.47 698.574 491.45C764.783 519.43 867.728 425.52 928.509 281.696C989.29 137.872 984.89 -1.40304 918.681 -29.3832C852.472 -57.3635 749.527 36.5465 688.746 180.371Z" stroke="#4D5469" stroke-width="0.5" stroke-miterlimit="10"/>
<path d="M689.315 186.728C635.015 336.082 646.737 477.422 715.496 502.42C784.255 527.419 884.014 426.609 938.314 277.255C992.614 127.901 980.892 -13.4391 912.133 -38.4376C843.374 -63.436 743.615 37.374 689.315 186.728Z" stroke="#4D5469" stroke-width="0.5" stroke-miterlimit="10"/>
<path d="M690.198 192.915C642.386 347.778 661.412 491.16 732.694 513.168C803.976 535.176 900.521 427.475 948.334 272.612C996.146 117.749 977.121 -25.6337 905.839 -47.6415C834.557 -69.6492 738.011 38.0514 690.198 192.915Z" stroke="#4D5469" stroke-width="0.5" stroke-miterlimit="10"/>
<path d="M690.735 199.182C649.405 359.564 675.745 505.001 749.568 524.025C823.391 543.049 916.741 428.456 958.071 268.074C999.402 107.693 973.061 -37.7443 899.238 -56.7684C825.415 -75.7925 732.065 38.8004 690.735 199.182Z" stroke="#4D5469" stroke-width="0.5" stroke-miterlimit="10"/>
<path d="M691.535 205.434C656.693 371.319 690.351 518.796 766.71 534.834C843.069 550.872 933.214 429.397 968.055 263.512C1002.9 97.6268 969.239 -49.8508 892.88 -65.8886C816.521 -81.9264 726.376 39.5488 691.535 205.434Z" stroke="#4D5469" stroke-width="0.5" stroke-miterlimit="10"/>
<path d="M692.418 211.735C664.067 383.141 705.05 532.672 783.955 545.723C862.86 558.774 949.808 430.403 978.159 258.997C1006.51 87.5921 965.527 -61.9393 886.622 -74.9904C807.717 -88.0414 720.769 40.3301 692.418 211.735Z" stroke="#4D5469" stroke-width="0.5" stroke-miterlimit="10"/>
</g>
</g>
</g>
</svg>
